<svg width="102" height="43" viewBox="0 0 102 43" fill="none" xmlns="http://www.w3.org/2000/svg">
<g clip-path="url(#clip0_26_2570)">
<path d="M42 0.21936H0V42.2194H42V0.21936Z" fill="white"/>
<path d="M12.0499 15.4127H6.89813V35.1466H12.0499V15.4127Z" fill="#E53E51"/>
<path d="M30.0374 15.4127V28.1611L22.528 15.4127H16.6777V35.1466H21.6549V22.3108L29.0769 35.1466H35.0145V15.4127H30.0374Z" fill="#E53E51"/>
<path d="M35.1019 6.94284H16.6777V12.0946H35.1019V6.94284Z" fill="#004876"/>
</g>
<path d="M56.2179 18.6858H51.4592V16.6822H63.2933V18.6858H58.5346V31H56.2179V18.6858ZM67.6496 31.2505C65.9103 31.2505 64.6023 30.7843 63.7257 29.8521C62.863 28.9059 62.4317 27.4588 62.4317 25.5108C62.4317 23.5628 62.863 22.1227 63.7257 21.1904C64.6023 20.2442 65.9103 19.7711 67.6496 19.7711C69.3889 19.7711 70.6968 20.2442 71.5734 21.1904C72.45 22.1227 72.8883 23.5628 72.8883 25.5108C72.8883 27.4588 72.45 28.9059 71.5734 29.8521C70.6968 30.7843 69.3889 31.2505 67.6496 31.2505ZM67.6496 29.4764C68.707 29.4764 69.4723 29.1703 69.9454 28.558C70.4324 27.9319 70.6759 26.9509 70.6759 25.6152V25.4064C70.6759 24.0707 70.4324 23.0967 69.9454 22.4844C69.4723 21.8583 68.707 21.5452 67.6496 21.5452C66.606 21.5452 65.8407 21.8583 65.3537 22.4844C64.8806 23.0967 64.6441 24.0707 64.6441 25.4064V25.6152C64.6441 26.9509 64.8806 27.9319 65.3537 28.558C65.8407 29.1703 66.606 29.4764 67.6496 29.4764ZM79.614 31.2505C77.8747 31.2505 76.5667 30.7843 75.6901 29.8521C74.8274 28.9059 74.3961 27.4588 74.3961 25.5108C74.3961 23.5628 74.8274 22.1227 75.6901 21.1904C76.5667 20.2442 77.8747 19.7711 79.614 19.7711C81.3533 19.7711 82.6612 20.2442 83.5378 21.1904C84.4144 22.1227 84.8527 23.5628 84.8527 25.5108C84.8527 27.4588 84.4144 28.9059 83.5378 29.8521C82.6612 30.7843 81.3533 31.2505 79.614 31.2505ZM79.614 29.4764C80.6715 29.4764 81.4367 29.1703 81.9098 28.558C82.3968 27.9319 82.6403 26.9509 82.6403 25.6152V25.4064C82.6403 24.0707 82.3968 23.0967 81.9098 22.4844C81.4367 21.8583 80.6715 21.5452 79.614 21.5452C78.5704 21.5452 77.8051 21.8583 77.3181 22.4844C76.845 23.0967 76.6085 24.0707 76.6085 25.4064V25.6152C76.6085 26.9509 76.845 27.9319 77.3181 28.558C77.8051 29.1703 78.5704 29.4764 79.614 29.4764ZM87.0284 15.9099H89.1782V31H87.0284V15.9099ZM95.9668 31.2505C94.464 31.2505 93.3161 30.9374 92.523 30.3112C91.7438 29.6851 91.3542 28.8989 91.3542 27.9528C91.3542 27.7997 91.3542 27.7023 91.3542 27.6606C91.3681 27.6049 91.375 27.5701 91.375 27.5562H93.4831V27.7441C93.4831 28.3424 93.7266 28.7946 94.2136 29.1007C94.7006 29.3929 95.3197 29.539 96.0711 29.539C96.739 29.539 97.2956 29.4138 97.7408 29.1633C98.2 28.9129 98.4296 28.558 98.4296 28.0989C98.4296 27.7371 98.3044 27.4449 98.0539 27.2223C97.8035 26.9857 97.4973 26.8048 97.1356 26.6796C96.7738 26.5405 96.252 26.3804 95.5702 26.1996C94.7353 25.9908 94.0535 25.7821 93.5248 25.5734C92.9961 25.3647 92.5438 25.0516 92.1682 24.6342C91.8064 24.2168 91.6255 23.6602 91.6255 22.9645C91.6255 21.9627 92.036 21.1835 92.8569 20.6269C93.6779 20.0564 94.7701 19.7711 96.1337 19.7711C96.9825 19.7711 97.72 19.9033 98.3461 20.1677C98.9862 20.4182 99.4732 20.773 99.8071 21.2322C100.155 21.6913 100.329 22.2062 100.329 22.7766L100.308 23.1941H98.2V23.048C98.2 22.5888 98.0122 22.2201 97.6365 21.9418C97.2747 21.6496 96.7112 21.5035 95.9459 21.5035C95.2084 21.5035 94.6658 21.6357 94.3179 21.9C93.984 22.1505 93.817 22.4497 93.817 22.7975C93.817 23.2289 94.0257 23.5489 94.4431 23.7576C94.8606 23.9663 95.5215 24.175 96.4259 24.3837C97.3025 24.5925 98.0191 24.8081 98.5757 25.0308C99.1323 25.2395 99.6123 25.5734 100.016 26.0326C100.419 26.4778 100.621 27.0762 100.621 27.8275C100.621 28.9963 100.197 29.859 99.3479 30.4156C98.5131 30.9722 97.386 31.2505 95.9668 31.2505Z" fill="white"/>
<defs>
<clipPath id="clip0_26_2570">
<rect width="42" height="42" fill="white" transform="translate(0 0.21936)"/>
</clipPath>
</defs>
</svg>
