<svg width="193" height="193" viewBox="0 0 193 193" fill="none" xmlns="http://www.w3.org/2000/svg">
<path d="M97.2238 101.084H93.4845V129.159H97.1334C97.5921 129.167 98.0473 129.077 98.4686 128.895C98.8898 128.713 99.2673 128.443 99.576 128.104C99.8945 127.782 100.146 127.401 100.317 126.982C100.488 126.562 100.574 126.114 100.571 125.661V104.552C100.578 104.091 100.49 103.635 100.314 103.209C100.138 102.784 99.8763 102.399 99.5459 102.079C99.2436 101.768 98.8828 101.52 98.4843 101.349C98.0858 101.179 97.6574 101.088 97.2238 101.084ZM75.7526 112.965C76.0816 112.644 76.342 112.259 76.5182 111.834C76.6944 111.409 76.7828 110.953 76.7779 110.492V104.461C76.7994 103.998 76.7277 103.535 76.5671 103.1C76.4065 102.665 76.1603 102.266 75.843 101.928C75.5104 101.601 75.1135 101.346 74.6775 101.18C74.2416 101.014 73.7759 100.94 73.3099 100.963H69.6309V113.991H73.2798C73.7406 114.001 74.1984 113.915 74.6242 113.738C75.0499 113.562 75.4343 113.299 75.7526 112.965Z" fill="#E53E51"/>
<path d="M165.859 81.4219H162.844V45.2344C162.844 45.2344 162.844 45.2344 162.844 45.0534C162.828 44.7866 162.778 44.5229 162.693 44.2694V43.998C162.554 43.6753 162.36 43.3794 162.12 43.1234L125.932 6.93594C125.677 6.69549 125.381 6.50158 125.058 6.36297H124.787C124.486 6.19838 124.16 6.0862 123.822 6.03125H33.1719C32.3721 6.03125 31.605 6.34897 31.0395 6.91451C30.474 7.48005 30.1562 8.24708 30.1562 9.04688V81.4219H27.1406C26.3408 81.4219 25.5738 81.7396 25.0083 82.3051C24.4427 82.8707 24.125 83.6377 24.125 84.4375V144.75C24.125 145.55 24.4427 146.317 25.0083 146.882C25.5738 147.448 26.3408 147.766 27.1406 147.766H30.1562V183.953C30.1562 184.753 30.474 185.52 31.0395 186.085C31.605 186.651 32.3721 186.969 33.1719 186.969H159.828C160.628 186.969 161.395 186.651 161.96 186.085C162.526 185.52 162.844 184.753 162.844 183.953V147.766H165.859C166.659 147.766 167.426 147.448 167.992 146.882C168.557 146.317 168.875 145.55 168.875 144.75V84.4375C168.875 83.6377 168.557 82.8707 167.992 82.3051C167.426 81.7396 166.659 81.4219 165.859 81.4219ZM126.656 16.3145L152.56 42.2188H126.656V16.3145ZM156.812 180.938H36.1875V147.766H156.812V180.938ZM63.5392 135.16V94.9017H73.0987C74.4064 94.8438 75.7114 95.0638 76.9278 95.5472C78.1442 96.0307 79.2442 96.7665 80.1553 97.7063C81.8176 99.5782 82.6928 102.02 82.598 104.522V110.372C82.6189 111.636 82.3839 112.892 81.9071 114.063C81.4303 115.234 80.7216 116.297 79.8236 117.187C78.961 118.101 77.9175 118.825 76.7597 119.313C75.6019 119.801 74.3551 120.042 73.0987 120.022H69.6308V135.1L63.5392 135.16ZM87.4833 135.16V94.8716H97.0127C98.274 94.8469 99.5266 95.0864 100.69 95.5746C101.853 96.0628 102.902 96.7889 103.768 97.7063C104.665 98.5909 105.373 99.6483 105.85 100.815C106.327 101.981 106.562 103.232 106.542 104.491V125.601C106.561 126.868 106.322 128.125 105.84 129.296C105.358 130.468 104.642 131.529 103.738 132.416C102.871 133.333 101.823 134.06 100.66 134.548C99.4964 135.036 98.2439 135.275 96.9825 135.251L87.4833 135.16ZM126.174 111.97V118.001H117.971V135.1H111.94V94.8716H129.22V100.903H117.971V111.88L126.174 111.97ZM156.812 81.4219H36.1875V12.0625H120.625V45.2344C120.625 46.0342 120.943 46.8012 121.508 47.3667C122.074 47.9323 122.841 48.25 123.641 48.25H156.812V81.4219Z" fill="#E53E51"/>
</svg>
