<svg width="31" height="43" viewBox="0 0 31 43" fill="none" xmlns="http://www.w3.org/2000/svg">
<path fill-rule="evenodd" clip-rule="evenodd" d="M15.5431 42.7429C10.951 35.6779 0 23.6673 0 15.5431C0 6.88847 6.88817 0 15.5431 0C24.0207 0 30.9092 6.88817 30.9092 15.5431C30.9092 23.6681 19.9586 35.6781 15.5431 42.7429ZM15.5431 5.4749C21.0183 5.4749 25.4343 9.89055 25.4343 15.3661C25.4343 20.8413 21.0187 25.4335 15.5431 25.4335C9.89108 25.4335 5.47567 20.8414 5.47567 15.3661C5.47567 9.89085 9.89131 5.4749 15.5431 5.4749Z" fill="#E53E51"/>
<circle cx="15.4545" cy="15.4725" r="10.3719" fill="white"/>
<path d="M13.4967 21.2672V16.6933C13.4967 16.3471 13.4967 16.174 13.5679 16.0418C13.6304 15.9255 13.7302 15.831 13.853 15.7717C13.9925 15.7043 14.1752 15.7043 14.5406 15.7043H16.3675C16.7329 15.7043 16.9156 15.7043 17.0551 15.7717C17.1779 15.831 17.2777 15.9255 17.3402 16.0418C17.4114 16.174 17.4114 16.3471 17.4114 16.6933V21.2672M8.92969 14.1591L14.8277 9.96839C15.0523 9.8088 15.1646 9.72901 15.288 9.69825C15.3968 9.6711 15.5113 9.6711 15.6201 9.69825C15.7435 9.72901 15.8558 9.8088 16.0804 9.96839L21.9784 14.1591M10.2346 13.2319V19.2893C10.2346 19.9816 10.2346 20.3278 10.3768 20.5922C10.5019 20.8248 10.7015 21.0139 10.947 21.1325C11.2262 21.2672 11.5916 21.2672 12.3224 21.2672H18.5857C19.3165 21.2672 19.6819 21.2672 19.9611 21.1325C20.2066 21.0139 20.4062 20.8248 20.5313 20.5922C20.6735 20.3278 20.6735 19.9816 20.6735 19.2893V13.2319L16.7067 10.4134C16.2575 10.0942 16.0329 9.93465 15.7862 9.87314C15.5685 9.81883 15.3396 9.81883 15.1219 9.87314C14.8752 9.93465 14.6506 10.0942 14.2014 10.4134L10.2346 13.2319Z" stroke="#E53E51" stroke-width="1.5" stroke-linecap="round" stroke-linejoin="round"/>
</svg>
